<svg xmlns="http://www.w3.org/2000/svg" viewBox="0 0 512 512">
  <defs>
    <linearGradient id="gradient" x1="0%" y1="0%" x2="100%" y2="100%">
      <stop offset="0%" stop-color="#1A5F7A"/>
      <stop offset="100%" stop-color="#2D9596"/>
    </linearGradient>
  </defs>
  
  <!-- Background circle -->
  <circle cx="256" cy="256" r="256" fill="url(#gradient)"/>
  
  <!-- Lung silhouette left -->
  <path d="M150 180 
           Q120 220, 150 260 
           Q180 300, 150 340 
           Q120 380, 150 420 
           Q180 460, 150 460 
           Q120 460, 110 430 
           Q100 400, 110 370 
           Q120 340, 110 310 
           Q100 280, 110 250 
           Q120 220, 110 190 
           Q100 160, 110 130 
           Q120 100, 150 100 
           Q180 100, 150 180Z" 
        fill="#FFFFFF" fill-opacity="0.9"/>
  
  <!-- Lung silhouette right -->
  <path d="M362 180 
           Q392 220, 362 260 
           Q332 300, 362 340 
           Q392 380, 362 420 
           Q332 460, 362 460 
           Q392 460, 402 430 
           Q412 400, 402 370 
           Q392 340, 402 310 
           Q412 280, 402 250 
           Q392 220, 402 190 
           Q412 160, 402 130 
           Q392 100, 362 100 
           Q332 100, 362 180Z" 
        fill="#FFFFFF" fill-opacity="0.9"/>
  
  <!-- Medical cross in center -->
  <rect x="236" y="150" width="40" height="140" rx="5" fill="#FFFFFF"/>
  <rect x="186" y="200" width="140" height="40" rx="5" fill="#FFFFFF"/>
  
  <!-- Graph line -->
  <path d="M120 360 
           L180 300 
           L240 340 
           L300 280 
           L360 320 
           L400 300" 
        fill="none" 
        stroke="#FFFFFF" 
        stroke-width="8" 
        stroke-linecap="round" 
        stroke-linejoin="round"/>
  
  <!-- Data point indicators -->
  <circle cx="180" cy="300" r="6" fill="#1A5F7A"/>
  <circle cx="240" cy="340" r="6" fill="#1A5F7A"/>
  <circle cx="300" cy="280" r="6" fill="#1A5F7A"/>
  <circle cx="360" cy="320" r="6" fill="#1A5F7A"/>
</svg>
