<svg xmlns="http://www.w3.org/2000/svg" viewBox="0 0 64 64" fill="#FFFFFF">
  <path d="M45,16a7,7,0,1,0,7,7A7,7,0,0,0,45,16Zm0,10a3,3,0,1,1,3-3A3,3,0,0,1,45,26Z"/>
  <path d="M56,30H54V20a16,16,0,0,0-32,0V30H20a8,8,0,0,0,0,16H22v8a8,8,0,0,0,16,0V46h2a8,8,0,0,0,0-16H40V20a12,12,0,0,1,24,0V42a6,6,0,0,1-12,0V34h2a4,4,0,0,1,0,8H54v6a2,2,0,0,0,4,0V20a8,8,0,0,0-16,0V30H38a4,4,0,0,1,0,8H40v8a4,4,0,0,1-8,0V38h2a4,4,0,0,1,0-8H34V20a8,8,0,0,0-16,0V30H20a4,4,0,0,1,0,8H22v8a4,4,0,0,1-8,0V38h2a4,4,0,0,1,0-8H16V20a12,12,0,0,1,24,0V42a6,6,0,0,1-12,0V34h2a4,4,0,0,1,0,8H30v6a2,2,0,0,0,4,0V20a16,16,0,0,0-32,0V30H8a8,8,0,0,0,0,16H10v8a8,8,0,0,0,16,0V46h2a8,8,0,0,0,0-16H28V20a12,12,0,0,1,24,0V42a6,6,0,0,1-12,0V34h2a4,4,0,0,1,0,8H54v6a2,2,0,0,0,4,0V20a8,8,0,0,0-16,0V30H38a4,4,0,0,1,0,8H40v8a4,4,0,0,1-8,0V38h2a4,4,0,0,1,0-8H34V20a8,8,0,0,0-16,0V30H20a4,4,0,0,1,0,8H22v8a4,4,0,0,1-8,0V38h2a4,4,0,0,1,0-8H16V20a12,12,0,0,1,24,0V42a6,6,0,0,1-12,0V34h2a4,4,0,0,1,0,8H30v6a2,2,0,0,0,4,0V20a16,16,0,0,0-32,0V30H8a8,8,0,0,0,0,16H10v8a8,8,0,0,0,16,0V46h2a8,8,0,0,0,0-16Z"/>
</svg>
