<svg xmlns="http://www.w3.org/2000/svg" viewBox="0 0 512 512">
  <defs>
    <linearGradient id="gradient" x1="0%" y1="0%" x2="100%" y2="100%">
      <stop offset="0%" stop-color="#1A5F7A"/>
      <stop offset="100%" stop-color="#2D9596"/>
    </linearGradient>
  </defs>

  <!-- Background -->
  <circle cx="256" cy="256" r="256" fill="url(#gradient)"/>

  <!-- Left lung -->
  <path d="
    M170 120
    C135 170, 135 250, 150 310
    C165 370, 150 420, 170 450
    C190 475, 215 440, 205 395
    C195 345, 215 300, 205 255
    C195 210, 215 165, 195 130
    C185 115, 175 115, 170 120 Z"
    fill="#FFFFFF" fill-opacity="0.92"/>

  <!-- Right lung -->
  <path d="
    M342 120
    C377 170, 377 250, 362 310
    C347 370, 362 420, 342 450
    C322 475, 297 440, 307 395
    C317 345, 297 300, 307 255
    C317 210, 297 165, 317 130
    C327 115, 337 115, 342 120 Z"
    fill="#FFFFFF" fill-opacity="0.92"/>

  <!-- Medical cross -->
  <rect x="236" y="150" width="40" height="140" rx="6"
        fill="#FFFFFF"
        stroke="#1A5F7A"
        stroke-opacity="0.35"
        stroke-width="1"/>

  <rect x="186" y="200" width="140" height="40" rx="6"
        fill="#FFFFFF"
        stroke="#1A5F7A"
        stroke-opacity="0.35"
        stroke-width="1"/>

  <!-- Subtle data trend -->
  <path d="
    M140 350
    L200 310
    L260 330
    L320 290
    L380 310"
    fill="none"
    stroke="#FFFFFF"
    stroke-width="6"
    stroke-linecap="round"
    stroke-opacity="0.4"/>

  <!-- Data points -->
  <circle cx="200" cy="310" r="6" fill="#1A5F7A"/>
  <circle cx="260" cy="330" r="6" fill="#1A5F7A"/>
  <circle cx="320" cy="290" r="6" fill="#1A5F7A"/>
  <circle cx="380" cy="310" r="6" fill="#1A5F7A"/>

</svg>
